HIERARCHY
ROOT Hips
{
  OFFSET 0.0502701 92.146 0
  CHANNELS 6 Xposition Yposition Zposition Zrotation Xrotation Yrotation
  JOINT Bip01_Pelvis
  {
    OFFSET 0 0 0
    CHANNELS 6 Xposition Yposition Zposition Zrotation Xrotation Yrotation
    JOINT BN_Tai_01
    {
      OFFSET -4.6544 -2.06234 0
      CHANNELS 6 Xposition Yposition Zposition Zrotation Xrotation Yrotation
      JOINT BN_Tai_R_01
      {
        OFFSET 10.2279 -0.119812 3.68897
        CHANNELS 6 Xposition Yposition Zposition Zrotation Xrotation Yrotation
        JOINT BN_Tai_R_02
        {
          OFFSET 15.0421 0 1.52588e-005
          CHANNELS 6 Xposition Yposition Zposition Zrotation Xrotation Yrotation
          End Site
          {
            OFFSET 0 0 0
          }
        }
      }
      JOINT BN_Tai_L_01
      {
        OFFSET 10.2279 -0.119797 -3.68907
        CHANNELS 6 Xposition Yposition Zposition Zrotation Xrotation Yrotation
        JOINT BN_Tai_L_02
        {
          OFFSET 15.0421 0 0
          CHANNELS 6 Xposition Yposition Zposition Zrotation Xrotation Yrotation
          End Site
          {
            OFFSET 0 0 0
          }
        }
      }
    }
    JOINT Bip01_Spine
    {
      OFFSET 2.7319 1.49192 0
      CHANNELS 6 Xposition Yposition Zposition Zrotation Xrotation Yrotation
      JOINT Bip01_R_Thigh
      {
        OFFSET -2.85206 -1.24717 -6.20578
        CHANNELS 6 Xposition Yposition Zposition Zrotation Xrotation Yrotation
        JOINT Bip01_R_Calf
        {
          OFFSET 6.73247 0 0
          CHANNELS 6 Xposition Yposition Zposition Zrotation Xrotation Yrotation
          JOINT Bip01_R_HorseLink
          {
            OFFSET 8.08523 0 0
            CHANNELS 6 Xposition Yposition Zposition Zrotation Xrotation Yrotation
            JOINT Bip01_R_Foot
            {
              OFFSET 8.97518 0 0
              CHANNELS 6 Xposition Yposition Zposition Zrotation Xrotation Yrotation
              JOINT BN_Toe_R_30
              {
                OFFSET 1.58762 -0.234982 -0.295153
                CHANNELS 6 Xposition Yposition Zposition Zrotation Xrotation Yrotation
                JOINT BN_Toe_R_31
                {
                  OFFSET 3.03849 0 0
                  CHANNELS 6 Xposition Yposition Zposition Zrotation Xrotation Yrotation
                  End Site
                  {
                    OFFSET 0 0 0
                  }
                }
              }
              JOINT BN_Toe_R_00
              {
                OFFSET 1.65463 0.933666 1.02414
                CHANNELS 6 Xposition Yposition Zposition Zrotation Xrotation Yrotation
                JOINT BN_Toe_R_01
                {
                  OFFSET 3.51775 0 0
                  CHANNELS 6 Xposition Yposition Zposition Zrotation Xrotation Yrotation
                  End Site
                  {
                    OFFSET 0 0 0
                  }
                }
              }
              JOINT BN_Toe_R_20
              {
                OFFSET 1.47309 1.0106 -1.16708
                CHANNELS 6 Xposition Yposition Zposition Zrotation Xrotation Yrotation
                JOINT BN_Toe_R_21
                {
                  OFFSET 3.94896 0 0
                  CHANNELS 6 Xposition Yposition Zposition Zrotation Xrotation Yrotation
                  End Site
                  {
                    OFFSET 0 0 0
                  }
                }
              }
              JOINT BN_Toe_R_10
              {
                OFFSET 1.07522 1.64225 0.0223596
                CHANNELS 6 Xposition Yposition Zposition Zrotation Xrotation Yrotation
                JOINT BN_Toe_R_11
                {
                  OFFSET 4.09655 0 0
                  CHANNELS 6 Xposition Yposition Zposition Zrotation Xrotation Yrotation
                  End Site
                  {
                    OFFSET 0 0 0
                  }
                }
              }
              JOINT Bip01_R_Toe0
              {
                OFFSET 2.04238 1.88275 0
                CHANNELS 6 Xposition Yposition Zposition Zrotation Xrotation Yrotation
                End Site
                {
                  OFFSET 0 0 0
                }
              }
            }
          }
        }
      }
      JOINT Bip01_L_Thigh
      {
        OFFSET -2.85154 -1.24849 6.20577
        CHANNELS 6 Xposition Yposition Zposition Zrotation Xrotation Yrotation
        JOINT Bip01_L_Calf
        {
          OFFSET 6.73247 0 0
          CHANNELS 6 Xposition Yposition Zposition Zrotation Xrotation Yrotation
          JOINT Bip01_L_HorseLink
          {
            OFFSET 8.08524 0 0
            CHANNELS 6 Xposition Yposition Zposition Zrotation Xrotation Yrotation
            JOINT Bip01_L_Foot
            {
              OFFSET 8.97521 0 0
              CHANNELS 6 Xposition Yposition Zposition Zrotation Xrotation Yrotation
              JOINT BN_Toe_L_00
              {
                OFFSET 1.65461 0.933701 -1.02419
                CHANNELS 6 Xposition Yposition Zposition Zrotation Xrotation Yrotation
                JOINT BN_Toe_L_01
                {
                  OFFSET 3.51778 0 0
                  CHANNELS 6 Xposition Yposition Zposition Zrotation Xrotation Yrotation
                  End Site
                  {
                    OFFSET 0 0 0
                  }
                }
              }
              JOINT BN_Toe_L_10
              {
                OFFSET 1.07523 1.6422 -0.0221281
                CHANNELS 6 Xposition Yposition Zposition Zrotation Xrotation Yrotation
                JOINT BN_Toe_L_11
                {
                  OFFSET 4.09657 0 0
                  CHANNELS 6 Xposition Yposition Zposition Zrotation Xrotation Yrotation
                  End Site
                  {
                    OFFSET 0 0 0
                  }
                }
              }
              JOINT BN_Toe_L_30
              {
                OFFSET 1.58761 -0.234954 0.295135
                CHANNELS 6 Xposition Yposition Zposition Zrotation Xrotation Yrotation
                JOINT BN_Toe_L_31
                {
                  OFFSET 3.03847 0 0
                  CHANNELS 6 Xposition Yposition Zposition Zrotation Xrotation Yrotation
                  End Site
                  {
                    OFFSET 0 0 0
                  }
                }
              }
              JOINT BN_Toe_L_20
              {
                OFFSET 1.4731 1.01055 1.1673
                CHANNELS 6 Xposition Yposition Zposition Zrotation Xrotation Yrotation
                JOINT BN_Toe_L_21
                {
                  OFFSET 3.94897 0 0
                  CHANNELS 6 Xposition Yposition Zposition Zrotation Xrotation Yrotation
                  End Site
                  {
                    OFFSET 0 0 0
                  }
                }
              }
              JOINT Bip01_L_Toe0
              {
                OFFSET 2.04238 1.88276 0
                CHANNELS 6 Xposition Yposition Zposition Zrotation Xrotation Yrotation
                End Site
                {
                  OFFSET 0 0 0
                }
              }
            }
          }
        }
      }
      JOINT Bip01_Spine1
      {
        OFFSET 8.6167 -0.00679016 0
        CHANNELS 6 Xposition Yposition Zposition Zrotation Xrotation Yrotation
        JOINT BN_Wing_R_01
        {
          OFFSET 0.267445 -6.12421 -7.49305
          CHANNELS 6 Xposition Yposition Zposition Zrotation Xrotation Yrotation
          JOINT BN_Wing_R_02
          {
            OFFSET 14.7158 0 0
            CHANNELS 6 Xposition Yposition Zposition Zrotation Xrotation Yrotation
            JOINT BN_Wing_R_03
            {
              OFFSET 19.0858 0 0
              CHANNELS 6 Xposition Yposition Zposition Zrotation Xrotation Yrotation
              JOINT BN_Wing_R_05
              {
                OFFSET 2.68908 -0.270637 0.785261
                CHANNELS 6 Xposition Yposition Zposition Zrotation Xrotation Yrotation
                JOINT BN_Wing_R_06
                {
                  OFFSET 21.1083 0 0
                  CHANNELS 6 Xposition Yposition Zposition Zrotation Xrotation Yrotation
                  End Site
                  {
                    OFFSET 0 0 0
                  }
                }
              }
              JOINT BN_Wing_R_04
              {
                OFFSET 27.642 0 0
                CHANNELS 6 Xposition Yposition Zposition Zrotation Xrotation Yrotation
                End Site
                {
                  OFFSET 0 0 0
                }
              }
            }
          }
        }
        JOINT BN_Wing_L_01
        {
          OFFSET 0.267452 -6.12421 7.49305
          CHANNELS 6 Xposition Yposition Zposition Zrotation Xrotation Yrotation
          JOINT BN_Wing_L_02
          {
            OFFSET 14.7158 0 0
            CHANNELS 6 Xposition Yposition Zposition Zrotation Xrotation Yrotation
            JOINT BN_Wing_L_03
            {
              OFFSET 19.0858 0 0
              CHANNELS 6 Xposition Yposition Zposition Zrotation Xrotation Yrotation
              JOINT BN_Wing_L_05
              {
                OFFSET 2.68908 -0.270635 -0.785254
                CHANNELS 6 Xposition Yposition Zposition Zrotation Xrotation Yrotation
                JOINT BN_Wing_L_06
                {
                  OFFSET 21.1083 0 0
                  CHANNELS 6 Xposition Yposition Zposition Zrotation Xrotation Yrotation
                  End Site
                  {
                    OFFSET 0 0 0
                  }
                }
              }
              JOINT BN_Wing_L_04
              {
                OFFSET 27.642 0 1.14441e-005
                CHANNELS 6 Xposition Yposition Zposition Zrotation Xrotation Yrotation
                End Site
                {
                  OFFSET 0 0 0
                }
              }
            }
          }
        }
        JOINT Bip01_Neck
        {
          OFFSET 7.59958 -1.43237 0
          CHANNELS 6 Xposition Yposition Zposition Zrotation Xrotation Yrotation
          JOINT Bip01_Neck1
          {
            OFFSET 3.64749 -0.00262451 0
            CHANNELS 6 Xposition Yposition Zposition Zrotation Xrotation Yrotation
            JOINT Bip01_Neck2
            {
              OFFSET 3.32331 -0.00284576 0
              CHANNELS 6 Xposition Yposition Zposition Zrotation Xrotation Yrotation
              JOINT Bip01_Head
              {
                OFFSET 4.63256 -0.573471 0
                CHANNELS 6 Xposition Yposition Zposition Zrotation Xrotation Yrotation
                JOINT BN_Jaw
                {
                  OFFSET 1.05386 2.23561 0
                  CHANNELS 6 Xposition Yposition Zposition Zrotation Xrotation Yrotation
                  End Site
                  {
                    OFFSET 0 0 0
                  }
                }
              }
            }
          }
        }
      }
    }
  }
}
MOTION
Frames:	4
Frame Time:	0.0333333
33.719 74.4784 -0.195191 -129.145 -89.8434 -109.727 0 0 0 -90.4235 9.59257 -94.3739 -4.65442 -2.06234 9.31323e-010 -19.8884 1.99261 -179.896 10.228 -0.119785 3.68891 43.6469 75.2774 -76.4372 15.0421 3.55271e-015 -3.8147e-006 7.63953 -3.72478 -40.2024 10.2278 -0.119766 -3.68914 -128.379 74.2732 97.4733 15.0421 -4.76837e-007 3.55271e-015 -7.12448 3.13975 -40.9737 3.03999 0.628586 -0.232334 -14.6504 -0.602253 3.44912 -2.41658 -1.315 -6.14453 -70.7868 -3.10695 -175.966 6.73248 3.8147e-006 -1.90735e-006 -19.6985 9.60267e-006 3.6259e-006 8.08524 3.8147e-006 -8.88178e-016 47.6651 -1.20141e-006 1.01374e-006 8.97521 -2.13163e-014 1.90735e-006 -49.1431 3.98754 -6.93715 1.58763 -0.235001 -0.295148 -166.598 -9.51898 170.3 3.03848 -7.6294e-006 -3.8147e-006 -18.1351 -0.0116715 0.0356398 1.65462 0.933655 1.02414 24.0199 40.1035 5.91112 3.51775 9.73444e-013 0 -7.93791 1.13859e-005 3.40709e-006 1.4731 1.0106 -1.16707 41.7354 -16.881 6.63781 3.94897 7.6294e-006 -7.62939e-006 -20.2616 -5.52082 6.09846 1.07521 1.64222 0.0223646 25.2769 -4.80824 -3.88108 4.09657 7.6294e-006 1.19209e-007 -17.1777 1.01197e-005 4.33548e-006 2.04238 1.88273 4.76019e-007 87.303 -3.53197 24.5743 -3.16326 -1.44604 6.24385 -99.0567 7.1458 174.546 6.73249 1.42109e-014 9.53674e-007 -45.9731 -6.12048e-008 -1.36962e-006 8.08524 -3.8147e-006 -1.90735e-006 24.3446 9.00909e-006 -3.89519e-006 8.9752 -7.62939e-006 -2.86102e-006 -14.9858 -0.315729 4.67933 1.65462 0.933693 -1.02419 40.9287 -56.2262 24.916 3.51775 -3.8147e-006 -7.62939e-006 -10.4079 -0.00601987 0.0275427 1.07522 1.64219 -0.022126 14.9032 -7.13898 1.46851 4.09656 -3.8147e-006 -9.53674e-007 10.3224 0.000413848 0.00228486 1.58764 -0.23497 0.295135 176.356 6.22267 178.593 3.03849 1.42109e-014 9.53674e-007 -38.7373 0.000190193 -0.000220128 1.47311 1.01056 1.1673 15.1797 26.5713 -5.0971 3.94897 -1.42109e-014 1.90735e-006 17.7769 0.00172791 0.00538972 2.04238 1.88275 1.18897e-007 123.425 2.70965 -28.4255 8.61719 -0.00685501 2.54065e-006 -14.6486 -0.496605 1.83323 0.267448 -6.12425 -7.49305 -62.9941 4.63551 36.3931 14.7158 1.42109e-014 3.55271e-014 95.2208 0.0781991 -2.24893 19.0859 -9.53674e-007 -3.8147e-006 -106.971 -5.09748 25.5369 2.68909 -0.270645 0.785278 -43.9004 2.67915 -1.45467 21.1083 4.26325e-014 3.8147e-006 -2.07863 -1.95008 -6.44051 27.642 1.52588e-005 -2.25953e-012 -23.3059 -9.8544 -4.18014 0.267464 -6.12426 7.49305 -66.4115 -1.90998 -36.7386 14.7158 4.26326e-014 3.55271e-015 95.2207 -0.0782125 2.24893 19.0859 0 3.55271e-015 -106.971 5.09749 -25.5369 2.68911 -0.270652 -0.785278 -43.9004 -2.67915 1.45466 21.1083 -2.28881e-005 -7.6294e-006 -2.07862 1.95008 6.44051 27.642 -7.62939e-006 1.52588e-005 -23.3054 9.84755 4.17865 7.59942 -1.43241 -1.77799e-005 25.347 0.476323 1.59202 3.64919 -0.00226212 1.77636e-015 -8.4814 1.5615 -1.66588 3.32334 -0.00289917 2.19269e-014 10.3709 4.42468 -2.07101 4.63256 -0.573471 -6.17492e-010 7.81645 -8.48919 3.42136 1.05391 2.23562 -8.2111e-010 -102.864 0.0120544 -179.968 
34.7457 73.0043 -0.0623723 -144.423 -89.7118 -122.022 0 0 0 -90.4677 9.59586 -94.8356 -4.65442 -2.06234 9.31324e-010 -10.5684 1.98334 179.938 10.228 -0.119785 3.68891 48.8202 78.1726 -65.8373 15.0421 -7.10543e-015 -3.8147e-006 6.82407 -3.87505 -45.623 10.2278 -0.119766 -3.68914 -124.607 77.2348 110.202 15.0421 -4.76837e-007 -3.55271e-015 -6.05398 3.5416 -46.1521 3.03825 0.628586 -0.254584 -13.6285 -0.637019 4.18224 -2.36147 -1.2617 -6.15475 -30.3868 -0.905853 -172.472 6.73248 3.8147e-006 -1.90735e-006 -7.01585 1.01644e-005 1.42916e-006 8.08524 3.8147e-006 0 38.9809 -1.3407e-006 8.20723e-007 8.97521 -2.84217e-014 1.90735e-006 -79.8529 9.29969 0.381959 1.58763 -0.235001 -0.295148 -166.903 -9.43414 170.276 3.03848 -7.6294e-006 -3.8147e-006 -18.364 -0.00783782 0.0236159 1.65462 0.933655 1.02414 24.3604 40.0942 5.56601 3.51775 9.66338e-013 0 -7.53096 1.01698e-005 1.22386e-005 1.4731 1.0106 -1.16707 41.9178 -16.8283 6.79801 3.94897 7.6294e-006 -7.62939e-006 -19.9315 -5.48572 6.0562 1.07521 1.64222 0.0223646 25.4669 -4.81879 -3.86044 4.09657 7.6294e-006 1.19209e-007 -16.8582 9.51547e-006 3.16991e-006 2.04238 1.88273 4.76133e-007 87.3655 -3.1795 25.6927 -3.26709 -1.39977 6.22294 -81.3987 6.57313 173.572 6.73249 1.42109e-014 9.53674e-007 -42.8717 -6.95098e-006 5.9776e-006 8.08524 -3.8147e-006 -1.90735e-006 21.6034 1.28734e-005 5.8543e-006 8.9752 -7.62939e-006 -2.86102e-006 -31.0853 -4.43078 3.20402 1.65462 0.933693 -1.02419 41.2866 -56.0052 25.18 3.51775 -3.8147e-006 -7.62939e-006 -9.9506 -0.00292586 0.0136497 1.07522 1.64219 -0.022126 15.2351 -7.11173 1.50044 4.09656 -3.8147e-006 -9.53674e-007 10.4415 -2.33957e-006 5.45215e-007 1.58764 -0.23497 0.295135 176.101 6.18864 178.56 3.03849 1.42109e-014 9.53674e-007 -38.7373 0.000292294 -0.000348036 1.47311 1.01056 1.1673 15.5247 26.4366 -5.135 3.94897 -2.84217e-014 1.90735e-006 17.821 -5.79747e-006 -1.73317e-005 2.04238 1.88275 1.18555e-007 123.233 2.56793 -28.5648 8.61719 -0.00685501 2.54065e-006 -10.2643 -0.394632 1.77223 0.267448 -6.12425 -7.49305 -63.1566 7.06543 39.1629 14.7158 -1.42109e-014 2.13163e-014 96.9525 0.011233 -2.26027 19.0859 -9.53674e-007 -3.8147e-006 -111.386 -5.9657 25.1902 2.68909 -0.270645 0.785279 -43.9216 2.679 -1.53747 21.1083 1.42108e-014 3.8147e-006 -2.07718 -1.92655 -10.126 27.642 1.52588e-005 -2.67519e-012 -27.3585 -10.9342 -7.404 0.267464 -6.12426 7.49305 -66.8696 -3.95047 -39.5965 14.7158 -2.84217e-014 -3.55271e-015 96.9526 -0.0112393 2.26027 19.0859 2.13163e-014 0 -111.386 5.9657 -25.1902 2.68911 -0.270652 -0.785278 -43.9216 -2.67902 1.53747 21.1083 -2.28881e-005 -7.6294e-006 -2.07718 1.92655 10.126 27.642 -7.62939e-006 1.52588e-005 -27.3581 10.9309 7.40312 7.59942 -1.43241 -1.77799e-005 20.9081 0.355959 1.78122 3.64919 -0.00226212 -8.88179e-016 -10.867 1.87842 -1.92141 3.32334 -0.00289917 2.1344e-014 5.35331 4.78797 -2.27292 4.63256 -0.573471 -5.71056e-010 5.09495 -9.59868 3.34295 1.05391 2.23562 -6.99845e-010 -101.957 -0.0086975 -179.973 
34.1204 72.37 0.0938559 -160.468 -89.5877 -133.771 0 0 0 -90.5058 9.60401 -95.2082 -4.65442 -2.06234 9.31322e-010 -1.01897 1.97132 179.712 10.228 -0.119785 3.68891 47.2839 80.7291 -46.3635 15.0421 -7.10543e-015 -3.8147e-006 6.08608 -4.02342 -48.2369 10.2278 -0.119766 -3.68914 -127.858 79.3468 132.116 15.0421 -4.76837e-007 -7.10543e-015 -5.25869 3.86265 -48.5484 3.03654 0.628586 -0.276403 -12.484 -0.628766 4.81227 -2.31993 -1.20618 -6.15987 -7.52648 1.56482 -171.425 6.73248 3.8147e-006 -1.90735e-006 -0.255309 1.0262e-005 2.22667e-007 8.08524 3.8147e-006 8.88178e-016 34.7426 -1.39768e-006 7.19395e-007 8.97521 7.10543e-015 1.90735e-006 -98.582 8.37605 6.13912 1.58763 -0.235001 -0.295148 -167.391 -9.34217 170.238 3.03848 -7.6294e-006 -3.8147e-006 -18.5885 -0.00398389 0.0118513 1.65462 0.933655 1.02414 24.9453 40.0832 4.96567 3.51775 1.04627e-012 -3.55271e-015 -7.13191 1.14769e-005 2.35247e-006 1.4731 1.0106 -1.16707 42.2051 -16.7391 7.05162 3.94897 7.6294e-006 -7.62939e-006 -19.6077 -5.45153 6.01458 1.07521 1.64222 0.0223646 25.7626 -4.83666 -3.83157 4.09657 7.6294e-006 1.19209e-007 -15.8496 9.10481e-006 2.89288e-006 2.04238 1.88273 4.75462e-007 87.3984 -3.01178 26.2394 -3.36114 -1.34275 6.20718 -64.5754 5.16535 172.694 6.73249 1.42109e-014 9.53674e-007 -40.9767 -6.74949e-006 6.20417e-006 8.08524 -3.8147e-006 -1.90735e-006 22.2771 9.49454e-006 -2.71134e-006 8.9752 -7.62939e-006 -2.86102e-006 -51.2303 -7.79152 -0.126168 1.65462 0.933693 -1.02419 41.6339 -55.7876 25.435 3.51775 -3.8147e-006 -7.62939e-006 -9.5022 1.63926e-007 -9.29999e-007 1.07522 1.64219 -0.022126 15.7626 -7.07444 1.55 4.09656 -3.81469e-006 -9.53674e-007 10.9948 -5.70555e-007 1.02175e-005 1.58764 -0.23497 0.295135 175.686 6.24074 178.605 3.03849 1.06581e-014 9.53674e-007 -38.7373 0.000377336 -0.000454604 1.47311 1.01056 1.1673 16.0721 26.22 -5.1981 3.94897 -7.10542e-015 1.90735e-006 18.2957 -0.000229043 -0.000691765 2.04238 1.88275 1.18638e-007 123.045 2.42939 -28.7018 8.61719 -0.00685501 2.54065e-006 -4.76026 -0.320012 1.71936 0.267448 -6.12425 -7.49305 -63.9885 8.69439 40.7592 14.7158 -1.42109e-014 1.42109e-014 97.602 -0.0139583 -2.26193 19.0859 -9.53674e-007 -3.8147e-006 -113.081 -6.30825 24.73 2.68909 -0.270645 0.785279 -43.9288 2.67785 -1.55274 21.1083 1.42108e-014 3.8147e-006 -2.07371 -1.91448 -11.507 27.642 1.52588e-005 -2.87947e-012 -28.9055 -11.3244 -8.615 0.267464 -6.12426 7.49305 -67.7892 -5.41318 -41.2255 14.7158 1.42109e-014 -1.77636e-015 97.602 0.0139564 2.26193 19.0859 7.10542e-015 -3.55271e-015 -113.081 6.30826 -24.73 2.68911 -0.270652 -0.785278 -43.9288 -2.67788 1.55274 21.1083 -2.28881e-005 -7.6294e-006 -2.07371 1.91448 11.507 27.642 -7.62939e-006 1.52588e-005 -28.9055 11.3244 8.615 7.59942 -1.43241 -1.77799e-005 15.6169 0.180095 1.93096 3.64919 -0.00226212 -4.44089e-015 -12.9285 2.1477 -2.11531 3.32334 -0.00289917 1.62925e-014 0.208941 4.97134 -2.31254 4.63256 -0.573471 -5.67562e-010 0.741773 -10.4208 2.89489 1.05391 2.23562 -5.41113e-010 -101.068 -0.0297088 -179.977 
32.3354 72.4004 0.26159 -176.222 -89.4613 -144.323 0 0 0 -90.531 9.60294 -95.4826 -4.65442 -2.06234 9.31319e-010 7.6666 1.95978 179.452 10.228 -0.119785 3.68891 37.1887 81.6072 -19.7726 15.0421 3.55271e-015 -3.8147e-006 5.4913 -4.2834 -47.4306 10.2278 -0.119766 -3.68914 -135.157 79.4684 156.621 15.0421 -4.76837e-007 0 -4.89715 4.23575 -47.5609 3.03527 0.628586 -0.291092 -11.2642 -0.586635 5.3384 -2.28983 -1.14993 -6.16711 -1.33501 2.29086 -171.657 6.73248 3.8147e-006 -1.90735e-006 2.20685 1.02621e-005 -2.18389e-007 8.08524 3.8147e-006 -2.66454e-015 32.8493 -1.42069e-006 6.72824e-007 8.97521 0 1.90735e-006 -101.998 7.46675 7.31511 1.58763 -0.235001 -0.295148 -168.056 -9.18531 170.181 3.03848 -7.6294e-006 -3.8147e-006 -18.8152 1.50252e-006 1.32741e-006 1.65462 0.933655 1.02414 25.7237 40.0634 4.16722 3.51775 1.06049e-012 0 -6.72891 1.14998e-005 2.21719e-006 1.4731 1.0106 -1.16707 42.5987 -16.6239 7.3986 3.94897 7.6294e-006 -7.62939e-006 -18.6961 -5.35429 5.90972 1.07521 1.64222 0.0223646 26.1732 -4.86006 -3.78909 4.09657 7.6294e-006 1.19209e-007 -14.8309 9.11194e-006 2.71224e-006 2.04238 1.88273 4.75344e-007 87.3993 -3.00507 26.2605 -3.44459 -1.27764 6.18995 -50.5239 3.56059 172.257 6.73249 1.42109e-014 9.53674e-007 -39.7732 -2.08768e-007 -1.35499e-006 8.08524 -3.8147e-006 -1.90735e-006 24.0907 9.02625e-006 -3.85524e-006 8.97519 -7.62939e-006 -2.86102e-006 -70.347 -8.94269 -4.03319 1.65462 0.933693 -1.02419 42.1351 -55.4417 25.7667 3.51775 -3.8147e-006 -7.62939e-006 -8.47852 -0.000861881 0.0116262 1.07522 1.64219 -0.022126 16.4845 -7.02142 1.6237 4.09656 -3.81469e-006 -9.53674e-007 11.5535 -2.53215e-006 3.87128e-007 1.58764 -0.23497 0.295135 175.115 6.21478 178.667 3.03849 1.77636e-014 9.53674e-007 -38.7373 0.000462552 -0.000561142 1.47311 1.01056 1.1673 16.8183 25.9236 -5.27888 3.94897 5.32907e-015 1.90735e-006 18.7752 -0.000463533 -0.00136244 2.04238 1.88275 1.19383e-007 122.855 2.28997 -28.8406 8.61719 -0.00685501 2.54065e-006 1.1722 -0.276784 1.66413 0.267448 -6.12425 -7.49305 -65.7995 9.45144 39.9531 14.7158 1.42109e-014 2.75335e-014 96.184 0.0322529 -2.24557 19.0859 -9.53674e-007 -3.8147e-006 -111.065 -5.8713 22.4488 2.68909 -0.270645 0.785279 -43.931 2.6801 -1.42732 21.1083 4.26325e-014 3.8147e-006 -2.07679 -1.92641 -9.70853 27.642 1.52588e-005 -2.58993e-012 -26.8995 -10.8068 -7.03785 0.267464 -6.12426 7.49305 -69.4502 -6.33053 -40.3875 14.7158 -1.42109e-014 -5.32907e-015 96.184 -0.032271 2.24557 19.0859 -1.42108e-014 7.10543e-015 -111.065 5.87131 -22.4488 2.68911 -0.270652 -0.785278 -43.9311 -2.68011 1.4273 21.1083 -2.28881e-005 -7.6294e-006 -2.07679 1.92641 9.70852 27.642 -7.62939e-006 1.52588e-005 -26.8995 10.8068 7.03785 7.59942 -1.43241 -1.77799e-005 10.6762 0.0184139 2.03909 3.64919 -0.00226212 -3.55271e-015 -14.0691 2.33863 -2.1857 3.32334 -0.00289917 1.32117e-014 -3.93848 4.97698 -2.20016 4.63256 -0.573471 -5.9365e-010 -4.6112 -10.9476 2.3147 1.05391 2.23562 -3.61593e-010 -99.4886 -0.0266419 -179.976 
